<svg xmlns="http://www.w3.org/2000/svg" width="28" height="28" viewBox="0 0 28 28">
  <g fill="none" fill-rule="evenodd" transform="translate(-10 -10)">
    <path fill="#5B5B5B" fill-rule="nonzero" d="M11.375 38L19.625 38C20.384 38 21 37.3728 21 36.6L21 11.4C21 10.6272 20.384 10 19.625 10L11.375 10C10.616 10 10 10.6272 10 11.4L10 36.6C10 37.3728 10.616 38 11.375 38zM12.75 12.8L18.25 12.8 18.25 35.2 12.75 35.2 12.75 12.8zM28.375 38L36.625 38C37.384 38 38 37.3728 38 36.6L38 11.4C38 10.6272 37.384 10 36.625 10L28.375 10C27.616 10 27 10.6272 27 11.4L27 36.6C27 37.3728 27.616 38 28.375 38zM29.75 12.8L35.25 12.8 35.25 35.2 29.75 35.2 29.75 12.8z"/>
    <rect width="48" height="48"/>
  </g>
</svg>
