<svg xmlns="http://www.w3.org/2000/svg" xmlns:xlink="http://www.w3.org/1999/xlink" width="48" height="48" viewBox="0 0 48 48">
  <defs>
    <path id="icon-me-a" d="M47.6612423,23.818315 C47.6612423,30.5699634 44.8685914,36.5714286 40.40035,40.8849817 C36.1182852,45.010989 30.1606299,47.63663 23.8306212,47.63663 C17.3144357,47.63663 11.5429571,45.010989 7.26089239,40.8849817 C2.79265092,36.5714286 0,30.5699634 0,23.818315 C0,10.6901099 10.6120735,0 23.8306212,0 C37.0491689,0 47.6612423,10.6901099 47.6612423,23.818315 Z"/>
  </defs>
  <g fill="none" fill-rule="evenodd">
    <mask id="icon-me-b" fill="#fff">
      <use xlink:href="#icon-me-a"/>
    </mask>
    <use fill="#CDD6E0" fill-rule="nonzero" xlink:href="#icon-me-a"/>
    <g mask="url(#icon-me-b)">
      <g transform="translate(13.606 13.714)">
        <path fill="#F2F2F2" fill-rule="nonzero" d="M33.6377953,16.6919339 C31.6940382,15.1525753 30.1668006,12.2837707 29.6114414,11.0242954 C29.4726016,10.6744412 29.264342,10.324587 29.0560823,9.97473275 C28.6395629,9.20505345 28.2924634,8.15549077 28.0147839,7.10592809 C26.9040656,3.11758989 23.2248112,0.248785228 19.0596175,0.318756074 C15.7274626,0.388726919 13.6448658,1.99805637 13.6448658,1.99805637 C12.4647276,3.25753158 8.99373293,6.0563654 8.99373293,6.0563654 C7.81359473,6.54616132 2.81536237,7.595724 2.81536237,7.595724 L0.941025229,8.01554908 C-0.516792544,8.71525753 1.01044512,11.4441205 1.01044512,11.4441205 C1.07986502,12.7035957 2.398843,13.1234208 2.398843,13.1234208 C1.98232364,14.5228377 3.23188173,14.8027211 3.23188173,14.8027211 C3.23188173,14.8027211 3.5095613,17.3916424 6.77229632,17.0417881 C10.0350313,16.6919339 13.1589266,17.6715258 13.1589266,17.6715258 C17.8794794,18.4412051 21.4198939,27.7473275 21.4198939,27.7473275 C22.4611924,29.776482 23.0165515,33.7648202 23.0165515,33.7648202 L33.6377953,33.7648202 L33.6377953,16.6919339 Z"/>
        <g transform="translate(3.093 10.115)">
          <g fill="#CDD6E0" fill-rule="nonzero" transform="translate(1.388)">
            <circle cx=".279" cy=".42" r="1"/>
            <circle cx="1.251" cy=".42" r="1"/>
            <circle cx="2.154" cy=".42" r="1"/>
          </g>
          <g fill="#CDD6E0" fill-rule="nonzero" transform="translate(0 .7)">
            <circle cx=".765" cy=".63" r="1"/>
            <circle cx="1.668" cy=".63" r="1"/>
            <circle cx="2.64" cy=".63" r="1"/>
            <circle cx="3.542" cy=".63" r="1"/>
            <circle cx="4.445" cy=".63" r="1"/>
          </g>
          <g fill="#CDD6E0" fill-rule="nonzero" transform="translate(1.388 2.799)">
            <circle cx="2.154" cy=".35" r="1"/>
            <circle cx="1.251" cy=".35" r="1"/>
            <circle cx=".279" cy=".35" r="1"/>
          </g>
          <g fill="#CDD6E0" fill-rule="nonzero" transform="translate(0 1.4)">
            <circle cx="4.445" cy=".77" r="1"/>
            <circle cx="3.542" cy=".77" r="1"/>
            <circle cx="2.64" cy=".77" r="1"/>
            <circle cx="1.668" cy=".77" r="1"/>
            <circle cx=".765" cy=".77" r="1"/>
          </g>
        </g>
        <path fill="#ACB3BA" fill-rule="nonzero" d="M33.6377953 18.5811467C32.6659168 17.9514091 31.7634581 17.2517007 30.9998393 16.3420797 30.7221597 15.9922255 30.3750603 15.6423712 30.0973807 15.4324587 29.9585409 15.3624879 29.889121 15.2225462 29.7502812 15.1525753 28.8478226 14.382896 28.4313032 13.2633625 28.2230435 12.0738581 28.2230435 11.8639456 28.0842038 11.654033 27.8759441 11.654033 24.2661096 11.5840622 24.5437892 18.3012634 21.2116343 19.7706511 20.725695 19.9805637 19.9620762 22.5694849 20.3091756 22.7793975 21.1422144 23.3391642 21.7669934 24.1788144 21.9752531 25.0884354 22.2529327 26.1379981 22.1140929 27.3974733 22.8082918 28.2371234 23.4330709 29.0068027 25.5156677 30.8960155 25.6545075 31.3858115 25.8627672 32.2254616 26.1404467 33.0651118 26.3487064 33.9047619L33.6377953 33.9047619 33.6377953 18.5811467zM24.4743693 13.2633625C25.5156677 11.9339164 26.0016069 10.324587 27.1123252 9.06511176 27.4594247 8.71525753 27.8065242 8.3654033 28.2230435 8.01554908 28.1536237 7.73566569 28.0842038 7.45578231 28.0147839 7.17589893 26.9734855 3.39747328 23.7801703.598639456 19.9620762.318756074 16.143982.0388726919 13.7142857 1.99805637 13.7142857 1.99805637 12.5341475 3.25753158 9.06315282 6.0563654 9.06315282 6.0563654 8.78547324 6.19630709 8.36895388 6.33624879 7.81359473 6.47619048 8.23011409 6.96598639 8.57721356 7.52575316 8.78547324 8.08551992 9.06315282 8.78522838 9.13257271 9.55490768 9.61851197 10.1846453 10.3821308 11.1642371 11.9093685 11.234208 13.1589266 11.1642371 13.2283465 11.8639456 13.0200868 12.6336249 12.9506669 13.3333333 12.881247 14.0330418 12.9506669 14.8726919 13.4366061 15.4324587 13.8531255 15.9222546 14.4779045 16.1321672 15.0332637 16.2721088 16.2134019 16.5519922 17.3241202 16.7619048 18.5736783 16.7619048 19.1984573 16.7619048 19.8232364 16.6919339 20.3785955 16.5519922 21.1422144 16.2721088 21.8364133 15.7823129 22.4611924 15.2225462 23.0859714 14.5928086 23.8495902 14.0330418 24.4743693 13.2633625z"/>
        <path fill="#40596B" fill-rule="nonzero" d="M2.53768279,7.73566569 L0.941025229,8.08551992 C-0.516792544,8.78522838 1.01044512,11.5140914 1.01044512,11.5140914 C1.01044512,11.9339164 1.98232364,11.3741497 2.88478226,10.8143829 C4.06492046,10.0447036 3.92608067,8.22546161 2.60710268,7.80563654 C2.53768279,7.73566569 2.53768279,7.73566569 2.53768279,7.73566569 Z"/>
        <g transform="translate(11.801 4.517)">
          <path fill="#CDD6E0" fill-rule="nonzero" d="M2.95420215,1.25947522 C2.88478226,1.04956268 2.74594247,0.909620991 2.67652258,0.699708455 C2.19058332,-0.0699708455 1.07986502,-0.139941691 0.593925759,0.559766764 C0.455085971,0.7696793 0.316246184,0.979591837 0.24682629,1.18950437 C0.107986502,1.46938776 0.177406396,1.74927114 0.385666077,1.95918367 C0.385666077,1.95918367 0.385666077,1.95918367 0.385666077,1.95918367 C0.455085971,2.02915452 0.593925759,2.16909621 0.663345653,2.23906706 C1.42696449,2.65889213 2.12116343,2.51895044 2.60710268,2.3090379 C2.95420215,2.16909621 3.16246184,1.67930029 2.95420215,1.25947522 Z"/>
          <path fill="#40596B" fill-rule="nonzero" d="M1.56580427,2.37900875 C1.49638438,2.37900875 1.42696449,2.37900875 1.35754459,2.37900875 C1.01044512,2.37900875 0.802185441,2.09912536 0.802185441,1.74927114 C0.802185441,1.04956268 1.35754459,0.489795918 2.05174353,0.489795918 C2.05174353,0.489795918 2.12116343,0.489795918 2.12116343,0.489795918 C2.4682629,0.559766764 2.74594247,0.7696793 2.81536237,1.11953353 C2.81536237,1.18950437 2.81536237,1.18950437 2.88478226,1.25947522 C2.95420215,1.39941691 2.95420215,1.60932945 2.88478226,1.74927114 C2.81536237,1.88921283 2.67652258,2.02915452 2.53768279,2.09912536 C2.19058332,2.3090379 1.84348385,2.37900875 1.56580427,2.37900875 Z"/>
          <path fill="#FFF" fill-rule="nonzero" d="M2.68333271,1.32944606 C2.75330356,1.46938776 2.54339102,1.5393586 2.33347849,1.67930029 C2.12356595,1.74927114 1.91365341,1.81924198 1.84368257,1.67930029 C1.77371172,1.5393586 1.84368257,1.18950437 2.12356595,1.11953353 C2.40344933,0.909620991 2.61336187,1.11953353 2.68333271,1.32944606 Z"/>
          <path fill="#231F20" fill-rule="nonzero" d="M2.67652258,0.7696793 C2.19058332,-3.60822483e-16 1.07986502,-0.0699708455 0.593925759,0.629737609 C0.455085971,0.839650146 0.316246184,1.04956268 0.24682629,1.25947522 C0.177406396,1.39941691 0.177406396,1.5393586 0.177406396,1.67930029 C0.316246184,1.67930029 0.524505865,1.60932945 0.593925759,1.46938776 C0.732765547,1.25947522 0.802185441,1.04956268 0.941025229,0.909620991 C1.07986502,0.699708455 1.35754459,0.559766764 1.63522417,0.559766764 C1.91290374,0.559766764 2.19058332,0.7696793 2.398843,0.979591837 C2.53768279,1.18950437 2.60710268,1.32944606 2.67652258,1.46938776 C2.74594247,1.60932945 2.88478226,1.67930029 3.02362205,1.67930029 C3.02362205,1.67930029 3.09304194,1.67930029 3.09304194,1.67930029 C3.09304194,1.5393586 3.09304194,1.39941691 3.02362205,1.32944606 C2.88478226,1.11953353 2.81536237,0.909620991 2.67652258,0.7696793 Z" opacity=".1"/>
        </g>
        <path fill="#40596B" fill-rule="nonzero" d="M29.6808613,5.84645287 C29.6808613,5.84645287 30.0279608,7.38581147 27.8065242,8.92517007 C25.5850876,10.4645287 24.8214687,7.38581147 24.8214687,7.38581147 L25.0991483,5.35665695 C25.0991483,5.35665695 26.5569661,4.16715258 26.6958059,4.16715258 C26.8346457,4.16715258 28.5007231,4.30709427 28.5007231,4.30709427 L29.6808613,5.84645287 Z"/>
        <path fill="#9EA3AA" fill-rule="nonzero" d="M21.4893138,3.81729835 C21.5587337,4.23712342 21.5587337,4.79689018 21.4198939,5.42662779 C21.4198939,5.42662779 20.4480154,8.71525753 21.7669934,11.9339164 C21.7669934,11.9339164 22.8777117,15.7123421 24.4743693,15.0826045 C24.7520489,15.0126336 24.8908886,14.8027211 25.0297284,14.5228377 C25.5850876,13.5432459 27.6676844,10.0447036 27.945364,8.71525753 C27.945364,8.71525753 28.3618833,4.02721088 29.7502812,5.84645287 C29.7502812,5.84645287 29.889121,4.09718173 27.251165,3.32750243 C27.1817451,3.32750243 26.4875462,2.34791059 24.6132091,1.92808552 C23.2248112,0.808551992 21.1422144,2.06802721 21.4893138,3.81729835 Z"/>
        <path fill="#ACB3BA" fill-rule="nonzero" d="M2.398843,13.1933916 L3.5095613,13.8231293 C4.13434035,14.1030126 3.71782099,15.0126336 3.09304194,14.8027211 C3.09304194,14.8027211 1.91290374,14.3129252 2.398843,13.1933916 Z"/>
      </g>
    </g>
  </g>
</svg>
