<svg xmlns="http://www.w3.org/2000/svg" width="44" height="47" viewBox="0 0 44 47">
  <g fill="none">
    <path fill="#CDD6E0" d="M43.3764706,14.2628571 C41.6176471,10.0114286 36.3411765,8.09142857 32.1470588,9.87428571 C32.6882353,5.34857143 29.3058824,0.685714286 24.8411765,0.137142857 C20.3764706,-0.411428571 16.0470588,3.29142857 15.5058824,7.81714286 C11.8529412,5.07428571 6.30588235,5.62285714 3.6,9.32571429 C0.894117647,13.0285714 1.84117647,18.6514286 5.49411765,21.3942857 C1.3,23.1771429 -1,28.3885714 0.758823529,32.64 C2.51764706,36.8914286 7.79411765,38.8114286 11.9882353,37.0285714 C11.4470588,41.5542857 14.8294118,46.2171429 19.2941176,46.7657143 C23.7588235,47.3142857 28.0882353,43.6114286 28.6294118,39.0857143 C32.2823529,41.8285714 37.8294118,41.28 40.5352941,37.5771429 C43.2411765,33.8742857 42.2941176,28.2514286 38.6411765,25.5085714 C42.8352941,23.7257143 45.1352941,18.3771429 43.3764706,14.2628571 Z"/>
    <ellipse cx="22" cy="23.451" fill="#F2F2F2" rx="9.335" ry="9.463"/>
    <ellipse cx="22" cy="23.451" fill="#ACB3BA" rx="3.788" ry="3.84"/>
  </g>
</svg>
