<svg xmlns="http://www.w3.org/2000/svg" xmlns:xlink="http://www.w3.org/1999/xlink" width="48" height="48" viewBox="0 0 48 48">
  <defs>
    <path id="icon-me--active-a" d="M47.6612423,23.818315 C47.6612423,30.5699634 44.8685914,36.5714286 40.40035,40.8849817 C36.1182852,45.010989 30.1606299,47.63663 23.8306212,47.63663 C17.3144357,47.63663 11.5429571,45.010989 7.26089239,40.8849817 C2.79265092,36.5714286 0,30.5699634 0,23.818315 C0,10.6901099 10.6120735,0 23.8306212,0 C37.0491689,0 47.6612423,10.6901099 47.6612423,23.818315 Z"/>
  </defs>
  <g fill="none" fill-rule="evenodd">
    <mask id="icon-me--active-b" fill="#fff">
      <use xlink:href="#icon-me--active-a"/>
    </mask>
    <use fill="#66C6B9" fill-rule="nonzero" xlink:href="#icon-me--active-a"/>
    <g mask="url(#icon-me--active-b)">
      <g transform="translate(13.228 13.333)">
        <path fill="#F2F2F2" fill-rule="nonzero" d="M34.015748,17.0728863 C32.071991,15.5335277 30.5447533,12.664723 29.9893942,11.4052478 C29.8505544,11.0553936 29.6422947,10.7055394 29.434035,10.3556851 C29.0175157,9.58600583 28.6704162,8.53644315 28.3927366,7.48688047 C27.2820183,3.49854227 23.6027639,0.629737609 19.4375703,0.699708455 C16.1054154,0.7696793 14.0228186,2.37900875 14.0228186,2.37900875 C12.8426804,3.63848397 9.37168568,6.43731778 9.37168568,6.43731778 C8.19154749,6.9271137 3.19331512,7.97667638 3.19331512,7.97667638 L1.31897798,8.39650146 C-0.138839788,9.09620991 1.38839788,11.8250729 1.38839788,11.8250729 C1.45781777,13.0845481 2.77679576,13.5043732 2.77679576,13.5043732 C2.36027639,14.9037901 3.60983448,15.1836735 3.60983448,15.1836735 C3.60983448,15.1836735 3.88751406,17.7725948 7.15024908,17.4227405 C10.4129841,17.0728863 13.5368793,18.0524781 13.5368793,18.0524781 C18.2574321,18.8221574 21.7978467,28.1282799 21.7978467,28.1282799 C22.8391451,30.1574344 23.3945043,34.1457726 23.3945043,34.1457726 L34.015748,34.1457726 L34.015748,17.0728863 Z"/>
        <g transform="translate(3.471 10.496)">
          <g fill="#CDD6E0" fill-rule="nonzero" transform="translate(1.388)">
            <circle cx=".279" cy=".42" r="1"/>
            <circle cx="1.251" cy=".42" r="1"/>
            <circle cx="2.154" cy=".42" r="1"/>
          </g>
          <g fill="#CDD6E0" fill-rule="nonzero" transform="translate(0 .7)">
            <circle cx=".765" cy=".63" r="1"/>
            <circle cx="1.668" cy=".63" r="1"/>
            <circle cx="2.64" cy=".63" r="1"/>
            <circle cx="3.542" cy=".63" r="1"/>
            <circle cx="4.445" cy=".63" r="1"/>
          </g>
          <g fill="#CDD6E0" fill-rule="nonzero" transform="translate(1.388 2.799)">
            <circle cx="2.154" cy=".35" r="1"/>
            <circle cx="1.251" cy=".35" r="1"/>
            <circle cx=".279" cy=".35" r="1"/>
          </g>
          <g fill="#CDD6E0" fill-rule="nonzero" transform="translate(0 1.4)">
            <circle cx="4.445" cy=".77" r="1"/>
            <circle cx="3.542" cy=".77" r="1"/>
            <circle cx="2.64" cy=".77" r="1"/>
            <circle cx="1.668" cy=".77" r="1"/>
            <circle cx=".765" cy=".77" r="1"/>
          </g>
        </g>
        <path fill="#FF7058" fill-rule="nonzero" d="M34.015748 18.9620991C33.0438695 18.3323615 32.1414109 17.6326531 31.3777921 16.7230321 31.1001125 16.3731778 30.753013 16.0233236 30.4753334 15.8134111 30.3364937 15.7434402 30.2670738 15.6034985 30.128234 15.5335277 29.2257753 14.7638484 28.809256 13.6443149 28.6009963 12.4548105 28.6009963 12.244898 28.4621565 12.0349854 28.2538968 12.0349854 24.6440623 11.9650146 24.9217419 18.6822157 21.589587 20.1516035 21.1036478 20.361516 20.3400289 22.9504373 20.6871284 23.1603499 21.5201671 23.7201166 22.1449462 24.5597668 22.3532058 25.4693878 22.6308854 26.5189504 22.4920456 27.7784257 23.1862446 28.6180758 23.8110236 29.3877551 25.8936204 31.2769679 26.0324602 31.7667638 26.2407199 32.606414 26.5183995 33.4460641 26.7266592 34.2857143L34.015748 34.2857143 34.015748 18.9620991zM24.852322 13.6443149C25.8936204 12.3148688 26.3795597 10.7055394 27.490278 9.44606414 27.8373775 9.09620991 28.1844769 8.74635569 28.6009963 8.39650146 28.5315764 8.11661808 28.4621565 7.83673469 28.3927366 7.55685131 27.3514382 3.77842566 24.1581231.979591837 20.3400289.699708455 16.5219348.419825073 14.0922385 2.37900875 14.0922385 2.37900875 12.9121003 3.63848397 9.44110558 6.43731778 9.44110558 6.43731778 9.163426 6.57725948 8.74690664 6.71720117 8.19154749 6.85714286 8.60806685 7.34693878 8.95516632 7.90670554 9.163426 8.4664723 9.44110558 9.16618076 9.51052547 9.93586006 9.99646473 10.5655977 10.7600836 11.5451895 12.2873212 11.6151603 13.5368793 11.5451895 13.6062992 12.244898 13.3980395 13.0145773 13.3286196 13.7142857 13.2591997 14.4139942 13.3286196 15.2536443 13.8145589 15.8134111 14.2310783 16.303207 14.8558573 16.5131195 15.4112165 16.6530612 16.5913547 16.9329446 17.702073 17.1428571 18.951631 17.1428571 19.5764101 17.1428571 20.2011891 17.0728863 20.7565483 16.9329446 21.5201671 16.6530612 22.2143661 16.1632653 22.8391451 15.6034985 23.4639242 14.9737609 24.227543 14.4139942 24.852322 13.6443149z"/>
        <path fill="#40596B" fill-rule="nonzero" d="M2.91563555,8.11661808 L1.31897798,8.4664723 C-0.138839788,9.16618076 1.38839788,11.8950437 1.38839788,11.8950437 C1.38839788,12.3148688 2.36027639,11.755102 3.26273502,11.1953353 C4.44287321,10.425656 4.30403342,8.60641399 2.98505544,8.18658892 C2.91563555,8.11661808 2.91563555,8.11661808 2.91563555,8.11661808 Z"/>
        <g transform="translate(11.801 4.898)">
          <path fill="#FFD15C" fill-rule="nonzero" d="M3.33215491,1.25947522 C3.26273502,1.04956268 3.12389523,0.909620991 3.05447533,0.699708455 C2.56853608,-0.0699708455 1.45781777,-0.139941691 0.971878515,0.559766764 C0.833038727,0.7696793 0.694198939,0.979591837 0.624779045,1.18950437 C0.485939258,1.46938776 0.555359152,1.74927114 0.763618833,1.95918367 C0.763618833,1.95918367 0.763618833,1.95918367 0.763618833,1.95918367 C0.833038727,2.02915452 0.971878515,2.16909621 1.04129841,2.23906706 C1.80491724,2.65889213 2.49911618,2.51895044 2.98505544,2.3090379 C3.33215491,2.16909621 3.54041459,1.67930029 3.33215491,1.25947522 Z"/>
          <path fill="#40596B" fill-rule="nonzero" d="M1.94375703,2.37900875 C1.87433714,2.37900875 1.80491724,2.37900875 1.73549735,2.37900875 C1.38839788,2.37900875 1.1801382,2.09912536 1.1801382,1.74927114 C1.1801382,1.04956268 1.73549735,0.489795918 2.42969629,0.489795918 C2.42969629,0.489795918 2.49911618,0.489795918 2.49911618,0.489795918 C2.84621565,0.559766764 3.12389523,0.7696793 3.19331512,1.11953353 C3.19331512,1.18950437 3.19331512,1.18950437 3.26273502,1.25947522 C3.33215491,1.39941691 3.33215491,1.60932945 3.26273502,1.74927114 C3.19331512,1.88921283 3.05447533,2.02915452 2.91563555,2.09912536 C2.56853608,2.3090379 2.22143661,2.37900875 1.94375703,2.37900875 Z"/>
          <path fill="#FFF" fill-rule="nonzero" d="M3.06128547,1.32944606 C3.13125631,1.46938776 2.92134378,1.5393586 2.71143124,1.67930029 C2.50151871,1.74927114 2.29160617,1.81924198 2.22163532,1.67930029 C2.15166448,1.5393586 2.22163532,1.18950437 2.50151871,1.11953353 C2.78140209,0.909620991 2.99131462,1.11953353 3.06128547,1.32944606 Z"/>
          <path fill="#231F20" fill-rule="nonzero" d="M3.05447533,0.7696793 C2.56853608,-3.33066907e-16 1.45781777,-0.0699708455 0.971878515,0.629737609 C0.833038727,0.839650146 0.694198939,1.04956268 0.624779045,1.25947522 C0.555359152,1.39941691 0.555359152,1.5393586 0.555359152,1.67930029 C0.694198939,1.67930029 0.902458621,1.60932945 0.971878515,1.46938776 C1.1107183,1.25947522 1.1801382,1.04956268 1.31897798,0.909620991 C1.45781777,0.699708455 1.73549735,0.559766764 2.01317692,0.559766764 C2.2908565,0.559766764 2.56853608,0.7696793 2.77679576,0.979591837 C2.91563555,1.18950437 2.98505544,1.32944606 3.05447533,1.46938776 C3.12389523,1.60932945 3.26273502,1.67930029 3.4015748,1.67930029 C3.4015748,1.67930029 3.4709947,1.67930029 3.4709947,1.67930029 C3.4709947,1.5393586 3.4709947,1.39941691 3.4015748,1.32944606 C3.26273502,1.11953353 3.19331512,0.909620991 3.05447533,0.7696793 Z" opacity=".1"/>
        </g>
        <path fill="#40596B" fill-rule="nonzero" d="M30.0588141,6.22740525 C30.0588141,6.22740525 30.4059135,7.76676385 28.1844769,9.30612245 C25.9630403,10.845481 25.1994215,7.76676385 25.1994215,7.76676385 L25.4771011,5.73760933 C25.4771011,5.73760933 26.9349188,4.54810496 27.0737586,4.54810496 C27.2125984,4.54810496 28.8786759,4.68804665 28.8786759,4.68804665 L30.0588141,6.22740525 Z"/>
        <path fill="#F1543F" fill-rule="nonzero" d="M24.9911618,2.3090379 C23.6027639,1.18950437 21.5201671,2.44897959 21.8672666,4.19825073 C21.9366865,4.6180758 21.9366865,5.17784257 21.7978467,5.80758017 C21.7978467,5.80758017 20.8259682,9.09620991 22.1449462,12.3148688 C22.1449462,12.3148688 23.2556645,16.0932945 24.852322,15.4635569 C25.1300016,15.393586 25.2688414,15.1836735 25.4076812,14.9037901 C25.9630403,13.9241983 28.0456372,10.425656 28.3233167,9.09620991 C28.3233167,9.09620991 28.7398361,4.40816327 30.128234,6.22740525 C30.128234,6.22740525 30.2670738,4.47813411 27.6291178,3.70845481 C27.5596979,3.70845481 26.865499,2.72886297 24.9911618,2.3090379 C24.9911618,2.3090379 24.9911618,2.3090379 24.9911618,2.3090379 Z"/>
        <path fill="#CDD6E0" fill-rule="nonzero" d="M2.77679576,13.574344 L3.88751406,14.2040816 C4.51229311,14.483965 4.09577374,15.393586 3.4709947,15.1836735 C3.4709947,15.1836735 3.4709947,15.1836735 3.4709947,15.1836735 C3.4709947,15.1836735 2.2908565,14.6938776 2.77679576,13.574344 Z"/>
      </g>
    </g>
  </g>
</svg>
