<svg xmlns="http://www.w3.org/2000/svg" width="48" height="48" viewBox="0 0 48 48">
  <g fill="none">
    <g transform="translate(8)">
      <g transform="translate(0 8)">
        <path fill="#CDD6E0" d="M11.7,20.1 C15.3,11.6 10.8,2.9 1.8,0.7 C-1.8,9.3 2.6,18 11.7,20.1 Z"/>
        <g fill="#ACB3BA" transform="translate(3 5)">
          <polygon points="6.7 10.8 6.9 4.7 6.1 10.5"/>
          <polygon points="5.4 8.1 .1 5.2 5.2 8.6"/>
          <polygon points="3.5 5.1 3.9 5.8 4.1 .7"/>
        </g>
        <path fill="#ACB3BA" d="M12.8,34.1 L16.2,34.1 C16.2,21.2 4.6,7.1 4.6,7.1 C4.6,7.1 14.1,21.4 12.8,34.1 Z"/>
      </g>
      <g transform="translate(14)">
        <g transform="translate(6)">
          <path fill="#CDD6E0" d="M2.1,21.6 C18.1,26.7 15.7,5.5 18.6,0 C11.1,5.3 -3.7,5.4 2.1,21.6 Z"/>
          <g fill="#ACB3BA" transform="translate(5 6)">
            <path d="M.4 10L.3 11C3.3 10.3 6.1 9.2 8.2 7.5 6.1 8.9 3.4 9.6.4 10zM2.1 7.4L2.9 7.5C3 4.9 3.4 2.7 4.1.8 3.1 2.6 2.4 4.8 2.1 7.4zM4.1 5.8C6.8 4.8 8.6 3.7 9.9 2.7 8.7 3.3 6.7 4.6 4.6 5L4.1 5.8z"/>
          </g>
        </g>
        <path fill="#ACB3BA" d="M4,42.1 C5.6,28.3 10.9,15.9 20,6.5 C9.4,15.1 2.1,27.7 0.3,42.1 L4,42.1 Z"/>
      </g>
    </g>
    <path fill="#CDD6E0" d="M48,48 C41.3,44.1 33,41.7 24,41.7 C15,41.7 6.7,44.1 0,48 L48,48 Z"/>
  </g>
</svg>
