<svg xmlns="http://www.w3.org/2000/svg" width="23" height="28" viewBox="0 0 23 28">
  <g fill="none" fill-rule="evenodd" transform="translate(-13 -10)">
    <path fill="#5B5B5B" fill-rule="nonzero" d="M14.7503,10.1676101 C14.3938,9.95058884 13.9522,9.94592172 13.5865,10.1442745 C13.2254,10.3519614 13,10.7416662 13,11.1640409 L13,36.8332192 C13,37.2555938 13.2254,37.6452986 13.5865,37.8529856 C13.7636,37.9509952 13.9568,38 14.15,38 C14.357,38 14.5663,37.9439945 14.7503,37.82965 L35.4503,24.9950609 C35.7907,24.7827068 36,24.4046698 36,23.99863 C36,23.5925903 35.7907,23.2145533 35.4503,23.0021992 L14.7503,10.1676101 Z M15.3,34.7516822 L15.3,13.2455779 L32.6443,23.99863 L15.3,34.7516822 Z"/>
    <rect width="48" height="48"/>
  </g>
</svg>
