<svg xmlns="http://www.w3.org/2000/svg" xmlns:xlink="http://www.w3.org/1999/xlink" width="44" height="44" viewBox="0 0 44 44">
  <defs>
    <path id="icon-share-a" d="M36.8,15.2 C34.1952,15.2 31.8933333,16.3925333 30.3274667,18.2314667 L19.6458667,12.064 C20.1856,6.76053333 16.0405333,2.66666667 11.2,2.66666667 C6.48746667,2.66666667 2.66666667,6.48746667 2.66666667,11.2 C2.66666667,15.9125333 6.48746667,19.7333333 11.2,19.7333333 C14.0736,19.7333333 16.6016,18.3018667 18.1482667,16.1258667 L28.4352,22.0650667 C28.2048,23.2256 28.2112,24.3434667 28.4544,25.5018667 L17.9008,31.5754667 C16.3392,29.5744 13.9328,28.2666667 11.2,28.2666667 C6.48746667,28.2666667 2.66666667,32.0874667 2.66666667,36.8 C2.66666667,41.5125333 6.48746667,45.3333333 11.2,45.3333333 C16.2389333,45.3333333 20.4245333,40.9130667 19.6032,35.5178667 L30.3893333,29.312 C31.9530667,31.1082667 34.2314667,32.2666667 36.8,32.2666667 C41.5125333,32.2666667 45.3333333,28.4458667 45.3333333,23.7333333 C45.3333333,19.0208 41.5125333,15.2 36.8,15.2"/>
  </defs>
  <g fill="none" fill-rule="evenodd" transform="translate(-2 -2)">
    <mask id="icon-share-b" fill="#fff">
      <use xlink:href="#icon-share-a"/>
    </mask>
    <use fill="#FFF" xlink:href="#icon-share-a"/>
    <g fill="#D0D0D0" mask="url(#icon-share-b)">
      <rect width="48" height="48"/>
    </g>
  </g>
</svg>
