<svg xmlns="http://www.w3.org/2000/svg" width="34" height="28" viewBox="0 0 34 28">
  <g fill="none" fill-rule="evenodd" transform="translate(-7 -10)">
    <path fill="#5B5B5B" fill-rule="nonzero" d="M8.41666667,38.0000239 C8.6575,38.0000239 8.8955,37.9412239 9.11083333,37.8208239 L29.6666667,26.3940239 L29.6666667,36.6000239 C29.6666667,37.3728239 30.3013333,38.0000239 31.0833333,38.0000239 L39.5833333,38.0000239 C40.3653333,38.0000239 41,37.3728239 41,36.6000239 L41,11.4000239 C41,10.6272239 40.3653333,10.0000239 39.5833333,10.0000239 L31.0833333,10.0000239 C30.3013333,10.0000239 29.6666667,10.6272239 29.6666667,11.4000239 L29.6666667,21.6060239 L9.11083333,10.1792239 C8.6745,9.93842387 8.13333333,9.93842387 7.70266667,10.1904239 C7.26916667,10.4424239 7,10.9016239 7,11.4000239 L7,36.6000239 C7,37.0984239 7.26916667,37.5576239 7.70266667,37.8096239 C7.92083333,37.9384239 8.17016667,38.0000239 8.41666667,38.0000239 Z M32.5,12.8000239 L38.1666667,12.8000239 L38.1666667,35.2000239 L32.5,35.2000239 L32.5,12.8000239 Z M9.83333333,13.7912239 L28.1933333,24.0000239 L9.83333333,34.2088239 L9.83333333,13.7912239 Z"/>
    <rect width="48" height="48"/>
  </g>
</svg>
